<svg xmlns="http://www.w3.org/2000/svg" width="400" height="300" viewBox="0 0 400 300" role="img" aria-labelledby="title desc">
<title id="title">BLACKBOX</title><desc id="desc">Repository intelligence and local codebase forensics.</desc>
<defs>
<linearGradient id="bg" x1="0" y1="0" x2="1" y2="1"><stop stop-color="#10151B"/><stop offset="1" stop-color="#080B0F"/></linearGradient>
<linearGradient id="cube" x1="0" y1="0" x2="1" y2="1"><stop stop-color="#33404A"/><stop offset="1" stop-color="#0D1217"/></linearGradient>
</defs>
<rect width="400" height="300" rx="24" fill="url(#bg)" stroke="#202832"/>
<text x="30" y="42" fill="#7DE9FF" font-family="Inter,Segoe UI,Arial,sans-serif" font-size="11" font-weight="700" letter-spacing="2.8">REPOSITORY INTELLIGENCE</text>
<g transform="translate(298 83)">
  <path d="M-48,-25 L0,-50 L48,-25 L0,0 Z" fill="#26313B" stroke="#596572"/>
  <path d="M-48,-25 L0,0 L0,54 L-48,27 Z" fill="#0B1015" stroke="#3C4752"/>
  <path d="M48,-25 L0,0 L0,54 L48,27 Z" fill="url(#cube)" stroke="#3C4752"/>
  <path d="M-19,-10 L0,-20 L19,-10 L0,0 Z" fill="#7DE9FF" opacity="0.9"/>
</g>
<text x="30" y="119" fill="#F2EEE5" font-family="Inter,Segoe UI,Arial,sans-serif" font-size="34" font-weight="650">BLACKBOX</text>
<text x="30" y="159" fill="#98A1AD" font-family="Inter,Segoe UI,Arial,sans-serif" font-size="15">See what a codebase is really made of.</text>
<text x="30" y="205" fill="#6F7884" font-family="Inter,Segoe UI,Arial,sans-serif" font-size="13">Structure · hotspots · risks · dependencies</text>
<rect x="30" y="246" width="182" height="2" rx="1" fill="#313944"/><rect x="224" y="246" width="34" height="2" rx="1" fill="#7DE9FF"/><rect x="270" y="246" width="66" height="2" rx="1" fill="#20262E"/>
<text x="339" y="253" fill="#7DE9FF" font-family="Arial,sans-serif" font-size="22">↗</text>
</svg>
