<svg xmlns="http://www.w3.org/2000/svg" width="400" height="300" viewBox="0 0 400 300" role="img" aria-labelledby="title desc">
<title id="title">Forge</title><desc id="desc">Local workflow runner for commands, files, HTTP calls, waits and app launches.</desc>
<defs><linearGradient id="bg" x1="0" y1="0" x2="1" y2="1"><stop stop-color="#14120F"/><stop offset="1" stop-color="#090A0C"/></linearGradient></defs>
<rect width="400" height="300" rx="24" fill="url(#bg)" stroke="#29231C"/>
<text x="30" y="42" fill="#F0A33A" font-family="Inter,Segoe UI,Arial,sans-serif" font-size="11" font-weight="700" letter-spacing="2.8">LOCAL AUTOMATION</text>
<g transform="translate(302 84)">
  <path d="M-58 -25 H-8 C8 -25 18 -15 18 2 V12" fill="none" stroke="#F0A33A" stroke-width="12" stroke-linecap="round"/>
  <path d="M56 42 H10 C-6 42 -16 32 -16 15 V5" fill="none" stroke="#C96A2C" stroke-width="12" stroke-linecap="round"/>
  <rect x="-68" y="-35" width="20" height="20" rx="5" fill="#F3CF78"/>
  <rect x="46" y="32" width="20" height="20" rx="5" fill="#F3CF78"/>
  <path d="M0 -2 l8 15 17 4-13 11 2 18-14-9-14 9 2-18-13-11 17-4z" fill="#FFE7A8"/>
</g>
<text x="30" y="119" fill="#F2EEE5" font-family="Inter,Segoe UI,Arial,sans-serif" font-size="34" font-weight="650">Forge</text>
<text x="30" y="159" fill="#98A1AD" font-family="Inter,Segoe UI,Arial,sans-serif" font-size="15">Turn repeated work into a local workflow.</text>
<text x="30" y="205" fill="#6F7884" font-family="Inter,Segoe UI,Arial,sans-serif" font-size="13">Commands · files · HTTP · reusable steps</text>
<rect x="30" y="246" width="170" height="2" rx="1" fill="#F0A33A"/><rect x="212" y="246" width="46" height="2" rx="1" fill="#F3CF78"/><rect x="270" y="246" width="66" height="2" rx="1" fill="#20262E"/>
<text x="339" y="253" fill="#F0A33A" font-family="Arial,sans-serif" font-size="22">↗</text>
</svg>
