<svg xmlns="http://www.w3.org/2000/svg" width="400" height="300" viewBox="0 0 400 300" role="img" aria-labelledby="title desc">
<title id="title">Pulse</title><desc id="desc">Local process and network relationship monitor.</desc>
<defs><linearGradient id="bg" x1="0" y1="0" x2="1" y2="1"><stop stop-color="#0D171B"/><stop offset="1" stop-color="#070B0E"/></linearGradient></defs>
<rect width="400" height="300" rx="24" fill="url(#bg)" stroke="#1D3035"/>
<text x="30" y="42" fill="#4ED8D2" font-family="Inter,Segoe UI,Arial,sans-serif" font-size="11" font-weight="700" letter-spacing="2.8">SYSTEM OBSERVABILITY</text>
<g transform="translate(300 86)">
  <path d="M-64 12h23l11-27 18 58 15-44 12 13h39" fill="none" stroke="#4ED8D2" stroke-width="8" stroke-linecap="round" stroke-linejoin="round"/>
  <circle cx="-64" cy="12" r="8" fill="#5CA8FF"/><circle cx="0" cy="10" r="9" fill="#F1CF78"/><circle cx="54" cy="12" r="8" fill="#76E39D"/>
  <path d="M0 10 -35 -30M0 10 34 -30" stroke="#2A4653" stroke-width="5" stroke-linecap="round"/><circle cx="-35" cy="-30" r="6" fill="#5CA8FF"/><circle cx="34" cy="-30" r="6" fill="#76E39D"/>
</g>
<text x="30" y="119" fill="#F2EEE5" font-family="Inter,Segoe UI,Arial,sans-serif" font-size="34" font-weight="650">Pulse</text>
<text x="30" y="159" fill="#98A1AD" font-family="Inter,Segoe UI,Arial,sans-serif" font-size="15">See what is running — and what connects.</text>
<text x="30" y="205" fill="#6F7884" font-family="Inter,Segoe UI,Arial,sans-serif" font-size="13">Processes · parents · ports · relationships</text>
<rect x="30" y="246" width="154" height="2" rx="1" fill="#4ED8D2"/><rect x="196" y="246" width="62" height="2" rx="1" fill="#5CA8FF"/><rect x="270" y="246" width="66" height="2" rx="1" fill="#20262E"/>
<text x="339" y="253" fill="#4ED8D2" font-family="Arial,sans-serif" font-size="22">↗</text>
</svg>
